<svg width="22" height="22" viewBox="0 0 22 22" fill="none" xmlns="http://www.w3.org/2000/svg">
<path d="M13.75 3.4375V18.5625C13.7431 18.8324 13.5824 19.0747 13.3366 19.1864C13.2404 19.2285 13.1364 19.25 13.0316 19.25C12.8691 19.25 12.711 19.1924 12.5873 19.0867L7.90787 15.125H5.12531C4.67327 15.1232 4.24016 14.9402 3.92305 14.6179C3.60594 14.2948 3.43063 13.8582 3.43751 13.4062V8.5937C3.43064 8.14167 3.60595 7.7051 3.92305 7.38198C4.24016 7.05973 4.6733 6.87667 5.12531 6.87495H7.90787L12.595 2.91319C12.8029 2.74046 13.0908 2.70178 13.3366 2.8135C13.5824 2.92522 13.7431 3.16767 13.75 3.4375Z" fill="#B9C2C7"/>
<path d="M19.3334 3.69534L18.3047 2.66709L16.5 4.47131L14.6954 2.66709L13.6667 3.69534L15.4714 5.5L13.6667 7.30422L14.6954 8.3329L16.5 6.52868L18.3047 8.33334L19.3334 7.30466L17.5287 5.49956L19.3334 3.69534ZM16.5 11C13.4626 11 11 8.53743 11 5.49956C11 2.46257 13.4626 0 16.5 0C19.5374 0 21.9996 2.46257 21.9996 5.49956C22 8.53743 19.5379 11 16.5 11V11Z" fill="#727272"/>
</svg>
