<svg width="22" height="22" viewBox="0 0 22 22" fill="none" xmlns="http://www.w3.org/2000/svg">
<path d="M13.75 3.4375V18.5625C13.7431 18.8324 13.5824 19.0747 13.3366 19.1864C13.2404 19.2285 13.1364 19.25 13.0316 19.25C12.8691 19.25 12.711 19.1924 12.5873 19.0867L7.90787 15.125H5.12531C4.67327 15.1232 4.24016 14.9402 3.92305 14.6179C3.60594 14.2948 3.43063 13.8582 3.43751 13.4062V8.5937C3.43064 8.14167 3.60595 7.7051 3.92305 7.38198C4.24016 7.05973 4.6733 6.87667 5.12531 6.87495H7.90787L12.595 2.91319C12.8029 2.74046 13.0908 2.70178 13.3366 2.8135C13.5824 2.92522 13.7431 3.16757 13.75 3.4374L13.75 3.4375ZM14.8723 8.66602C14.7091 8.74766 14.5853 8.89117 14.5277 9.06391C14.4702 9.23665 14.4831 9.4257 14.5647 9.58899C14.9609 10.4879 14.9609 11.5123 14.5647 12.4111C14.3954 12.7506 14.5329 13.164 14.8723 13.3341C15.2118 13.5034 15.6252 13.3659 15.7953 13.0265C16.3814 11.7391 16.3814 10.2611 15.7953 8.97363C15.6251 8.63417 15.2118 8.49667 14.8723 8.66598L14.8723 8.66602ZM17.7099 6.91117H17.7108C17.5406 6.57171 17.1273 6.43421 16.7878 6.60352C16.4483 6.77368 16.3108 7.18703 16.4802 7.52649C17.471 9.73595 17.471 12.2642 16.4802 14.4736C16.3985 14.6369 16.3856 14.826 16.4432 14.9987C16.5008 15.1715 16.6245 15.315 16.7878 15.3966C17.1273 15.5659 17.5406 15.4284 17.7108 15.089C18.895 12.4919 18.895 9.50823 17.7108 6.91113L17.7099 6.91117Z" fill="#B9C2C7"/>
</svg>
