<svg width="22" height="22" viewBox="0 0 22 22" fill="none" xmlns="http://www.w3.org/2000/svg">
<path d="M19.7453 5L19.6148 8.6059L13.3096 8.5L13.2028 5H6.66044L1.15997 10.5015C0.946678 10.7148 0.946678 11.0352 1.15997 11.2495L6.66044 16.75H19.7453C20.6264 16.75 21.3474 16.029 21.3474 15.1478V6.60218C21.3474 5.72098 20.6264 5 19.7453 5ZM14.9118 13.1711L13.3096 11.623L11.7875 13.1981L11.0135 12.4772L12.5356 10.902L10.9604 9.37995L11.7085 8.6059L13.2836 10.128L14.5 8.86916L15.274 9.61719L14.0576 10.875L15.6328 12.3971L14.9118 13.1711Z" fill="#B9C2C7"/>
<path d="M19.3334 3.69534L18.3047 2.66709L16.5 4.47131L14.6954 2.66709L13.6667 3.69534L15.4714 5.5L13.6667 7.30422L14.6954 8.3329L16.5 6.52868L18.3047 8.33334L19.3334 7.30466L17.5287 5.49956L19.3334 3.69534ZM16.5 11C13.4626 11 11 8.53743 11 5.49956C11 2.46257 13.4626 0 16.5 0C19.5374 0 21.9996 2.46257 21.9996 5.49956C22 8.53743 19.5379 11 16.5 11V11Z" fill="#727272"/>
</svg>
