<svg width="19" height="19" viewBox="0 0 19 19" fill="none" xmlns="http://www.w3.org/2000/svg">
<path d="M17.955 7.96062L17.2143 7.10562C16.8915 6.72562 16.6822 6.25062 16.6443 5.73777L16.5493 4.61708C16.4543 3.45777 15.5236 2.52708 14.3643 2.43208L13.2436 2.33708C12.7493 2.29923 12.2558 2.10923 11.8758 1.76708L11.0208 1.02638C10.1279 0.266383 8.81639 0.266383 7.92358 1.02638L7.06858 1.76708C6.68858 2.08993 6.21358 2.29923 5.70073 2.33708L4.58004 2.43208C3.42073 2.52708 2.49004 3.45777 2.39504 4.61708L2.30004 5.73777C2.26219 6.23208 2.07219 6.72562 1.73004 7.10562L0.989342 7.96062C0.229342 8.85347 0.229342 10.165 0.989342 11.0578L1.73004 11.9128C2.05289 12.2928 2.26219 12.7678 2.30004 13.2807L2.39504 14.4014C2.49004 15.5607 3.42073 16.4914 4.58004 16.5864L5.70073 16.6814C6.19504 16.7192 6.68858 16.9092 7.06858 17.2514L7.92358 17.9921C8.81643 18.7521 10.128 18.7521 11.0208 17.9921L11.8758 17.2514C12.2558 16.9285 12.7308 16.7192 13.2436 16.6814L14.3643 16.5864C15.5236 16.4914 16.4543 15.5607 16.5493 14.4014L16.6443 13.2807C16.6822 12.7864 16.8722 12.2928 17.2143 11.9128L17.955 11.0578C18.715 10.165 18.715 8.835 17.955 7.96062V7.96062ZM10.1272 13.167V14.0977C10.1272 14.1927 10.0515 14.2684 9.9565 14.2684H9.04435C8.94935 14.2684 8.87364 14.1927 8.87364 14.0977V13.1855C7.94295 13.1284 7.20149 12.4062 7.10649 11.4949C7.08719 11.3999 7.18219 11.3049 7.27719 11.3049H8.18935C8.26505 11.3049 8.34149 11.362 8.36005 11.4377C8.4172 11.7227 8.66435 11.932 8.9679 11.932H9.76575C10.2407 11.932 10.6779 11.5899 10.7157 11.1149C10.7729 10.5827 10.3551 10.127 9.8229 10.127H9.23359C8.09359 10.127 7.0864 9.30985 6.97297 8.16982C6.85868 6.97266 7.71367 5.96544 8.83513 5.8142V4.90204C8.83513 4.80704 8.91083 4.73134 9.00583 4.73134H9.91798C10.013 4.73134 10.0887 4.80704 10.0887 4.90204V5.8142C11.0194 5.87135 11.7608 6.5935 11.8558 7.50489C11.8751 7.59989 11.7801 7.69489 11.6851 7.69489H10.773C10.6973 7.69489 10.6208 7.63775 10.6023 7.56204C10.5451 7.27704 10.298 7.06774 9.99443 7.06774H9.19658C8.72158 7.06774 8.28443 7.40989 8.24658 7.88489C8.18943 8.41704 8.60728 8.89204 9.13943 8.89204H9.82373C11.0966 8.89204 12.1037 9.97489 11.9709 11.267C11.8945 12.2549 11.0959 12.9956 10.1273 13.167L10.1272 13.167Z" fill="#09C05D"/>
</svg>
