<svg width="19" height="19" viewBox="0 0 19 19" fill="none" xmlns="http://www.w3.org/2000/svg">
<path d="M18.0278 4.94969L13.2096 9.5L18.0278 14.0503C18.0404 13.9605 18.05 13.8685 18.05 13.775V5.22496C18.05 5.13145 18.0411 5.03942 18.0278 4.94962V4.94969Z" fill="#078CEC"/>
<path d="M10.5554 10.6993L17.6212 4.02629C17.2716 3.59879 16.7417 3.32492 16.1502 3.32492H2.85015C2.25862 3.32492 1.72871 3.59879 1.37913 4.02629L8.44485 10.7C9.01708 11.2396 9.98342 11.2396 10.5556 10.6993L10.5554 10.6993Z" fill="#078CEC"/>
<path d="M0.972267 4.94968C0.95965 5.03949 0.950001 5.13152 0.950001 5.22503V13.775C0.950001 13.8685 0.959649 13.9606 0.972267 14.0504L5.79048 9.49931L0.972267 4.94968Z" fill="#078CEC"/>
<path d="M11.207 11.3903C10.7364 11.8356 10.1182 12.0575 9.49992 12.0575C8.88168 12.0575 8.26344 11.8349 7.79289 11.3903L6.48293 10.1531L1.37896 14.9736C1.72852 15.4011 2.25845 15.6749 2.84998 15.6749H16.15C16.7415 15.6749 17.2714 15.4011 17.621 14.9736L12.5178 10.1531L11.207 11.3903Z" fill="#078CEC"/>
</svg>
