<svg width="22" height="22" viewBox="0 0 22 22" fill="none" xmlns="http://www.w3.org/2000/svg">
<path d="M10.9592 1.76426C10.9128 1.76426 10.8655 1.77973 10.8268 1.7952L3.78569 4.86662C3.62926 4.9285 3.52097 5.10037 3.52097 5.27226C3.52097 10.0117 3.8089 12.7393 4.89276 14.8207C5.98433 16.8944 7.83221 18.2195 10.7633 20.1687C10.9034 20.2623 11.0985 20.2623 11.2386 20.1687C14.1781 18.2196 16.0176 16.8944 17.1092 14.8207C18.193 12.7393 18.481 10.0108 18.481 5.27138C18.481 5.0995 18.3795 4.92849 18.224 4.86574L11.1769 1.7952C11.115 1.76426 11.0368 1.75653 10.9586 1.76426H10.9592ZM11.0056 2.67605L17.593 5.55233C17.5853 10.0579 17.2819 12.5992 16.3304 14.4159C15.3944 16.2086 13.758 17.4246 11.0058 19.2645C8.24498 17.4246 6.61627 16.2085 5.67254 14.4159C4.72879 12.5992 4.42538 10.0579 4.40991 5.55233L11.0056 2.67605ZM11.0056 6.38679C10.3971 6.38679 9.89857 6.8775 9.89857 7.48594L10.1246 11.4459C10.1246 11.9289 10.5148 12.3268 11.0056 12.3268C11.4887 12.3268 11.8789 11.9289 11.8789 11.4459L12.1049 7.48594C12.1049 6.8775 11.6056 6.38679 11.0056 6.38679V6.38679ZM11.0056 12.9817C10.3971 12.9817 9.89857 13.4724 9.89857 14.0809C9.89857 14.6893 10.3979 15.18 11.0056 15.18C11.6056 15.18 12.1049 14.6893 12.1049 14.0809C12.1049 13.4724 11.6056 12.9817 11.0056 12.9817V12.9817Z" fill="#FF6B00"/>
</svg>
