<svg width="22" height="22" viewBox="0 0 22 22" fill="none" xmlns="http://www.w3.org/2000/svg">
<path fill-rule="evenodd" clip-rule="evenodd" d="M19.065 10.1358C18.9356 9.91924 18.7184 9.7997 18.4491 9.7997C17.9484 9.80181 17.3466 10.0001 16.8783 10.3172C16.4459 10.609 15.8194 11.1518 15.2906 12.0757C15.1908 12.2494 15.0284 12.3668 14.854 12.3949C14.8533 12.3548 14.8533 12.3091 14.8533 12.2663C14.8533 12.1727 14.854 12.0624 14.8498 11.9407V5.29961C14.8498 4.63796 14.3119 4.10007 13.6502 4.10007C12.9879 4.10007 12.45 4.63796 12.45 5.29961V9.95009C12.45 10.0324 12.3825 10.0999 12.3002 10.0999C12.2172 10.0999 12.1497 10.0324 12.1497 9.95009V3.20009C12.1497 2.53774 11.6119 1.99985 10.9502 1.99985C10.2879 1.99985 9.74997 2.53774 9.74997 3.20009V9.95009C9.74997 10.0324 9.68247 10.0999 9.6002 10.0999C9.51723 10.0999 9.44973 10.0324 9.44973 9.95009V4.55009C9.44973 3.9707 8.97864 3.49963 8.39997 3.49963C7.82131 3.49963 7.35021 3.97072 7.35021 4.55009V10.5498C7.35021 10.6321 7.28271 10.6996 7.19974 10.6996C7.11748 10.6996 7.04998 10.6321 7.04998 10.5498V6.80009C7.04998 6.2207 6.57888 5.74963 5.99669 5.74963C5.41803 5.74963 4.94693 6.22072 4.94693 6.80009L4.94763 14.9591C5.23803 19.154 7.81071 19.7199 10.29 19.7199C12.3438 19.7199 14.1888 18.7011 15.098 17.0727C15.2154 16.8835 15.5318 16.3857 15.9066 15.7965C16.8453 14.3221 17.6314 13.0839 17.7475 12.8638C18.0062 12.3737 18.2952 11.9905 18.5828 11.7557C18.8429 11.5433 19.0018 11.2719 19.1312 11.0343C19.198 10.9112 19.2557 10.4563 19.0651 10.1357L19.065 10.1358ZM14.7837 12.4153L14.7725 12.7001L14.7464 12.4005L14.7837 12.4153Z" fill="#B9C2C7"/>
</svg>
