<svg width="22" height="22" viewBox="0 0 22 22" fill="none" xmlns="http://www.w3.org/2000/svg">
<path fill-rule="evenodd" clip-rule="evenodd" d="M19.065 10.1358C18.9356 9.91924 18.7183 9.7997 18.449 9.7997C17.9484 9.80181 17.3465 10.0001 16.8782 10.3172C16.4458 10.609 15.8193 11.1518 15.2906 12.0757C15.1907 12.2494 15.0283 12.3668 14.8539 12.3949C14.8532 12.3548 14.8532 12.3091 14.8532 12.2663C14.8532 12.1727 14.8539 12.0624 14.8497 11.9407C14.851 10.0054 13.4989 8.63368 13.5 7C13.5003 6.51049 14.8536 6.0799 14.8539 5.5C14.8539 4.83836 14.1616 4.5 13.5 4.5C12.8377 4.5 12.4499 4.63796 12.4499 5.29961V9.95009C12.4499 10.0324 12.3824 10.0999 12.3002 10.0999C12.2172 10.0999 12.1497 10.0324 12.1497 9.95009V3.20009C12.1497 2.53774 11.6118 1.99985 10.9502 1.99985C10.2878 1.99985 9.74994 2.53774 9.74994 3.20009V9.95009C9.74994 10.0324 9.68244 10.0999 9.60017 10.0999C9.5172 10.0999 9.4497 10.0324 9.4497 9.95009V4.55009C9.4497 3.9707 8.97861 3.49963 8.39994 3.49963C7.82128 3.49963 7.35018 3.97072 7.35018 4.55009V10.5498C7.35018 10.6321 7.28268 10.6996 7.19971 10.6996C7.11745 10.6996 7.04995 10.6321 7.04995 10.5498V6.80009C7.04995 6.2207 6.57885 5.74963 5.99666 5.74963C5.418 5.74963 4.9469 6.22072 4.9469 6.80009L4.9476 14.9591C5.238 19.154 7.81068 19.7199 10.29 19.7199C12.3438 19.7199 14.1888 18.7011 15.098 17.0727C15.2154 16.8835 15.5318 16.3857 15.9066 15.7965C16.8452 14.3221 17.6313 13.0839 17.7474 12.8638C18.0062 12.3737 18.2952 11.9905 18.5827 11.7557C18.8429 11.5433 19.0018 11.2719 19.1312 11.0343C19.198 10.9112 19.2555 10.4564 19.065 10.1358ZM14.7837 12.4153L14.7724 12.7001L14.7464 12.4005L14.7837 12.4153Z" fill="#B9C2C7"/>
<path d="M19.3334 3.69534L18.3047 2.66709L16.5 4.47131L14.6954 2.66709L13.6667 3.69534L15.4714 5.5L13.6667 7.30422L14.6954 8.3329L16.5 6.52868L18.3047 8.33334L19.3334 7.30466L17.5287 5.49956L19.3334 3.69534ZM16.5 11C13.4626 11 11 8.53743 11 5.49956C11 2.46257 13.4626 0 16.5 0C19.5374 0 21.9996 2.46257 21.9996 5.49956C22 8.53743 19.5379 11 16.5 11V11Z" fill="#727272"/>
</svg>
