<svg width="19" height="19" viewBox="0 0 19 19" fill="none" xmlns="http://www.w3.org/2000/svg">
<path d="M9.49999 0.665001C7.15691 0.665001 4.90959 1.5957 3.25298 3.25299C1.59567 4.90956 0.664993 7.15692 0.664993 9.5C0.664993 11.8431 1.59569 14.0904 3.25298 15.747C4.90955 17.4043 7.15691 18.335 9.49999 18.335C11.8431 18.335 14.0904 17.4043 15.747 15.747C17.4043 14.0904 18.335 11.8431 18.335 9.5C18.335 7.15692 17.4043 4.9096 15.747 3.25299C14.0904 1.59568 11.8431 0.665001 9.49999 0.665001V0.665001ZM10.522 15.0687C10.2593 15.3411 9.89557 15.4925 9.51705 15.4873C9.14076 15.4932 8.77858 15.3418 8.51955 15.0687C8.25088 14.803 8.10245 14.4386 8.10912 14.0601C8.10689 13.6868 8.25384 13.3275 8.51805 13.0633C8.78226 12.7991 9.14148 12.6514 9.51481 12.6544C9.89185 12.6477 10.2548 12.7954 10.5205 13.0626C10.7929 13.3216 10.9443 13.6838 10.9383 14.0601C10.945 14.4393 10.7943 14.8045 10.522 15.0687H10.522ZM12.9008 7.46871C12.8273 7.71438 12.7227 7.94964 12.5913 8.17008C12.4599 8.38975 12.3063 8.59535 12.1334 8.78387C11.9582 8.97535 11.7727 9.16535 11.5767 9.35387C11.38 9.54239 11.2249 9.70121 11.1114 9.82887C10.9963 9.95504 10.8976 10.0946 10.8167 10.2452C10.7455 10.3818 10.6935 10.5273 10.6609 10.6779C10.626 10.8531 10.6089 11.0312 10.6119 11.2101V11.4721H8.47V10.9229C8.46777 10.6779 8.49449 10.4338 8.55016 10.1955C8.60508 9.96989 8.69043 9.75243 8.8025 9.54982C8.93089 9.32568 9.08527 9.11713 9.26266 8.9301C9.48532 8.69185 9.72282 8.46845 9.97293 8.25917C10.2253 8.04245 10.4561 7.80123 10.6609 7.53924C10.8294 7.30618 10.9155 7.02417 10.9059 6.73767C10.9059 6.41035 10.773 6.0979 10.5377 5.87079C10.2698 5.61028 9.90615 5.47223 9.53282 5.49079C9.1209 5.48411 8.72309 5.637 8.42101 5.91681C8.28148 6.04447 8.16273 6.1929 8.06921 6.35767C7.97792 6.5165 7.9089 6.6872 7.86437 6.86459L5.98293 6.0801C6.07868 5.75651 6.21821 5.4485 6.3993 5.16424C6.80898 4.51185 7.42055 4.01236 8.14196 3.74146C8.5665 3.58189 9.01775 3.50396 9.47196 3.51139C9.96106 3.5062 10.4479 3.58635 10.9103 3.74889C11.3222 3.89287 11.703 4.11479 12.031 4.40276C12.3398 4.6781 12.5877 5.01507 12.7584 5.39209C13.0471 6.04669 13.0998 6.78072 12.9068 7.46879L12.9008 7.46871Z" fill="#C9D0D4"/>
</svg>
