<svg width="27" height="22" viewBox="0 0 27 22" fill="none" xmlns="http://www.w3.org/2000/svg">
<path fill-rule="evenodd" clip-rule="evenodd" d="M22.4996 4.75H4.49926C3.88015 4.75 3.3739 5.25625 3.3739 5.87536V17.1257C3.3739 17.7448 3.88015 18.2511 4.49926 18.2511H22.4996C23.1187 18.2511 23.625 17.7448 23.625 17.1257V5.87536C23.625 5.25625 23.1187 4.75 22.4996 4.75ZM14.7107 6.65688H17.1322V9.07845H14.7107V6.65688ZM18.343 10.2892V12.7108H15.9214V10.2892H18.343ZM11.0784 6.65688H13.4999V9.07845H11.0784V6.65688ZM14.7107 10.2892V12.7108H12.2891V10.2892H14.7107ZM7.44604 6.65688H9.86762V9.07845H7.44604V6.65688ZM11.0784 10.2892V12.7108H8.65677V10.2892H11.0784ZM5.02441 6.65688H6.2352V9.07845H5.02441V6.65688ZM5.02441 10.2892H7.44599V12.7108H5.02441V10.2892ZM6.2352 16.3431H5.02441V13.9215H6.2352V16.3431ZM17.1321 16.3431H7.44588V13.9215H17.1321V16.3431ZM21.9754 16.3431H18.3431V13.9215H21.9754V16.3431ZM21.9754 12.7108H19.5538V10.2892H21.9754V12.7108ZM21.9754 9.07851H18.3431V6.65693H21.9754V9.07851Z" fill="#B9C2C7"/>
</svg>
