<svg width="22" height="22" viewBox="0 0 22 22" fill="none" xmlns="http://www.w3.org/2000/svg">
<path fill-rule="evenodd" clip-rule="evenodd" d="M5.04598 14.7032C4.96629 14.7009 4.88191 14.7227 4.81474 14.7657C4.74755 14.8087 4.69599 14.8735 4.66474 14.947C4.47645 15.3923 3.83662 16.4774 3.5585 17.497C3.41943 18.0071 3.34834 18.5282 3.5585 19.0032C3.76866 19.4782 4.29054 19.7923 4.98974 19.8344H5.02724C5.76006 19.8118 6.30692 19.5149 6.52724 19.0344C6.74756 18.554 6.66396 18.0235 6.51474 17.5094C6.36552 16.9954 6.12958 16.4758 5.9085 16.0219C5.68742 15.568 5.47804 15.1688 5.4085 14.9719C5.38194 14.8969 5.32959 14.8251 5.26475 14.7782C5.1999 14.7313 5.12568 14.7055 5.04599 14.7032L5.04598 14.7032ZM5.02723 16.047C5.07957 16.1524 5.13426 16.2587 5.18973 16.372C5.40457 16.8134 5.62097 17.304 5.74597 17.7345C5.87097 18.1649 5.878 18.5235 5.79597 18.7032C5.71472 18.8806 5.56863 19.0142 5.02097 19.0345C4.51473 19.0009 4.37253 18.8657 4.28973 18.6782C4.20613 18.4884 4.21082 18.129 4.32723 17.7032C4.4741 17.1642 4.77099 16.5649 5.02723 16.047V16.047Z" fill="#B9C2C7"/>
<path fill-rule="evenodd" clip-rule="evenodd" d="M9.36608 2.00025C9.18483 2.00025 9.00514 2.03931 8.83484 2.11275C8.47156 2.26978 8.14344 2.56119 7.83484 2.96275C7.2278 3.75415 6.68406 4.99095 6.28484 6.69395C6.12703 6.84083 5.97312 6.99317 5.81608 7.15019C4.80826 8.15801 4.00984 9.18459 3.52228 10.0626C3.27852 10.5017 3.10666 10.9064 3.03478 11.2751C2.96447 11.6353 2.98556 12.0134 3.24102 12.2876C3.24571 12.2931 3.2543 12.3009 3.25977 12.3063V12.3126L10.2848 19.3314C10.559 19.6056 10.9535 19.6275 11.3223 19.5564C11.691 19.4853 12.0895 19.3189 12.5285 19.0752C13.4059 18.5877 14.4332 17.7892 15.4409 16.7814C16.4487 15.7735 17.2472 14.7462 17.7347 13.869C17.9785 13.4299 18.1441 13.0315 18.2159 12.6627C18.2863 12.3026 18.2722 11.9174 18.0159 11.644C18.0097 11.6369 17.998 11.6315 17.9909 11.6252L11.0534 4.6876C10.9455 3.39854 10.6221 2.5282 9.95959 2.15C9.77912 2.04766 9.57131 2 9.36583 2L9.36608 2.00025ZM9.37858 2.78775C9.44186 2.78931 9.49811 2.80884 9.55983 2.844C9.77155 2.96509 10.0708 3.44712 10.2098 4.344C10.1176 4.34791 10.0262 4.35728 9.93483 4.37525C9.56607 4.44634 9.16139 4.61275 8.72233 4.85649C8.29811 5.09243 7.84029 5.40649 7.36609 5.77525C7.70047 4.72057 8.09577 3.94087 8.47233 3.45025C8.72545 3.12057 8.97077 2.92291 9.15357 2.84401C9.24498 2.80417 9.31529 2.7862 9.37857 2.78776L9.37858 2.78775ZM10.2598 5.13775C10.2669 5.13775 10.2786 5.144 10.2848 5.144C10.2942 5.3776 10.2926 5.62604 10.2848 5.894C10.2176 6.06353 10.1294 6.25182 10.0161 6.4565C9.5809 7.2401 8.81762 8.22994 7.85366 9.1941C6.8896 10.1582 5.90054 10.9144 5.11606 11.3503C4.72388 11.5683 4.38402 11.7042 4.1473 11.7503C3.9137 11.7956 3.83714 11.7526 3.82854 11.7441C3.82073 11.7355 3.77698 11.6589 3.82229 11.4253C3.86838 11.1886 4.00432 10.8425 4.22229 10.4503C4.65823 9.66591 5.41447 8.68311 6.37849 7.71909C7.34255 6.75503 8.33239 5.99175 9.11609 5.55669C9.50749 5.33873 9.84891 5.20903 10.0849 5.16293C10.1583 5.14887 10.2145 5.13871 10.2599 5.13793L10.2598 5.13775ZM9.80982 10.5628C9.84732 10.5628 9.8856 10.5628 9.92232 10.569C9.95279 10.5807 9.98404 10.5901 10.0161 10.594C10.1028 10.6237 10.1786 10.669 10.2473 10.7378C10.4848 10.9753 10.4848 11.3503 10.2473 11.5878C10.0106 11.8221 9.63403 11.8221 9.39731 11.5878C9.16059 11.3503 9.16059 10.9745 9.39731 10.7378C9.42309 10.712 9.44419 10.6956 9.47231 10.6753C9.57153 10.6042 9.69263 10.5659 9.80981 10.5628H9.80982ZM6.77222 11.2065C6.93394 11.5128 7.16988 11.7065 7.32846 11.8128C7.45112 11.8948 7.51674 11.9456 7.54096 11.9815C7.5644 12.0167 7.58784 12.0549 7.57221 12.2315C7.48549 12.7799 7.16361 12.8924 6.81597 13.369C6.64097 13.6088 6.50737 13.9518 6.52847 14.369C6.53081 14.3956 6.52613 14.4237 6.52847 14.4503L4.55347 12.469C4.85035 12.3807 5.17065 12.2386 5.50971 12.0503C5.90659 11.8299 6.33003 11.544 6.77221 11.2065L6.77222 11.2065Z" fill="#B9C2C7"/>
<path d="M19.3334 3.69534L18.3047 2.66709L16.5 4.47131L14.6954 2.66709L13.6667 3.69534L15.4714 5.5L13.6667 7.30422L14.6954 8.3329L16.5 6.52868L18.3047 8.33334L19.3334 7.30466L17.5287 5.49956L19.3334 3.69534ZM16.5 11C13.4626 11 11 8.53743 11 5.49956C11 2.46257 13.4626 0 16.5 0C19.5374 0 21.9996 2.46257 21.9996 5.49956C22 8.53743 19.5379 11 16.5 11V11Z" fill="#727272"/>
</svg>
