<svg width="22" height="22" viewBox="0 0 22 22" fill="none" xmlns="http://www.w3.org/2000/svg">
<path fill-rule="evenodd" clip-rule="evenodd" d="M5.04601 14.7032C4.96632 14.7009 4.88195 14.7227 4.81477 14.7657C4.74758 14.8087 4.69602 14.8735 4.66477 14.947C4.47649 15.3923 3.83665 16.4774 3.55853 17.497C3.41947 18.0071 3.34837 18.5282 3.55853 19.0032C3.76869 19.4782 4.29057 19.7923 4.98977 19.8344H5.02727C5.76009 19.8118 6.30695 19.5149 6.52727 19.0344C6.74759 18.554 6.66399 18.0235 6.51477 17.5094C6.36555 16.9954 6.12961 16.4758 5.90853 16.0219C5.68745 15.568 5.47807 15.1688 5.40853 14.9719C5.38197 14.8969 5.32962 14.8251 5.26478 14.7782C5.19993 14.7313 5.12572 14.7055 5.04602 14.7032L5.04601 14.7032ZM5.02726 16.047C5.0796 16.1524 5.13429 16.2587 5.18976 16.372C5.4046 16.8134 5.621 17.304 5.746 17.7345C5.871 18.1649 5.87803 18.5235 5.796 18.7032C5.71475 18.8806 5.56866 19.0142 5.021 19.0345C4.51476 19.0009 4.37256 18.8657 4.28976 18.6782C4.20616 18.4884 4.21085 18.129 4.32726 17.7032C4.47413 17.1642 4.77102 16.5649 5.02726 16.047V16.047Z" fill="#B9C2C7"/>
<path fill-rule="evenodd" clip-rule="evenodd" d="M9.7398 2.16562C9.55855 2.16562 9.37886 2.20469 9.20856 2.27812C8.84528 2.43516 8.51716 2.72656 8.20856 3.12812C7.60152 3.91952 7.05778 5.15632 6.65856 6.85933C6.50075 7.0062 6.34684 7.15855 6.1898 7.31557C5.18198 8.32339 4.38356 9.34997 3.896 10.228C3.65224 10.667 3.48038 11.0717 3.4085 11.4405C3.33819 11.8006 3.35928 12.1787 3.61474 12.453C3.61942 12.4584 3.62802 12.4662 3.63349 12.4717V12.478L10.6585 19.4968C10.9327 19.771 11.3272 19.7929 11.696 19.7218C12.0647 19.6507 12.4632 19.4843 12.9022 19.2405C13.7796 18.753 14.8069 17.9546 15.8146 16.9467C16.8224 15.9389 17.6209 14.9115 18.1084 14.0343C18.3522 13.5953 18.5178 13.1968 18.5897 12.8281C18.66 12.4679 18.6459 12.0828 18.3897 11.8093C18.3834 11.8023 18.3717 11.7968 18.3647 11.7906L11.4271 4.85298C11.3193 3.56391 10.9958 2.69357 10.3333 2.31537C10.1528 2.21303 9.94503 2.16537 9.73955 2.16537L9.7398 2.16562ZM9.7523 2.95312C9.81558 2.95469 9.87183 2.97422 9.93355 3.00937C10.1453 3.13047 10.4445 3.61249 10.5835 4.50938C10.4914 4.51328 10.4 4.52266 10.3085 4.54063C9.93979 4.61172 9.53511 4.77813 9.09605 5.02187C8.67183 5.25781 8.21401 5.57187 7.73981 5.94063C8.07419 4.88595 8.46949 4.10624 8.84605 3.61562C9.09917 3.28594 9.34449 3.08828 9.52729 3.00938C9.61869 2.96954 9.68901 2.95157 9.75229 2.95313L9.7523 2.95312ZM10.6335 5.30313C10.6406 5.30313 10.6523 5.30938 10.6585 5.30938C10.6679 5.54298 10.6664 5.79142 10.6585 6.05938C10.5914 6.22891 10.5031 6.4172 10.3898 6.62188C9.95462 7.40548 9.19134 8.39532 8.22738 9.35948C7.26332 10.3235 6.27426 11.0798 5.48978 11.5157C5.0976 11.7336 4.75774 11.8696 4.52102 11.9157C4.28742 11.961 4.21086 11.918 4.20226 11.9094C4.19444 11.9008 4.1507 11.8243 4.19601 11.5907C4.2421 11.3539 4.37804 11.0078 4.59601 10.6157C5.03195 9.83129 5.78819 8.84848 6.75221 7.88446C7.71627 6.9204 8.70611 6.15713 9.48981 5.72207C9.88121 5.50411 10.2226 5.37441 10.4586 5.32831C10.532 5.31424 10.5883 5.30409 10.6336 5.30331L10.6335 5.30313ZM10.1835 10.7281C10.221 10.7281 10.2593 10.7281 10.296 10.7344C10.3265 10.7461 10.3578 10.7555 10.3898 10.7594C10.4765 10.7891 10.5523 10.8344 10.621 10.9031C10.8585 11.1406 10.8585 11.5156 10.621 11.7531C10.3843 11.9875 10.0077 11.9875 9.77103 11.7531C9.53431 11.5156 9.53431 11.1398 9.77103 10.9031C9.79681 10.8773 9.8179 10.8609 9.84603 10.8406C9.94525 10.7695 10.0663 10.7312 10.1835 10.7281H10.1835ZM7.14594 11.3719C7.30766 11.6781 7.5436 11.8719 7.70218 11.9781C7.82483 12.0602 7.89046 12.1109 7.91468 12.1469C7.93812 12.182 7.96155 12.2203 7.94593 12.3969C7.85921 12.9453 7.53733 13.0578 7.18969 13.5344C7.01469 13.7742 6.88109 14.1172 6.90219 14.5344C6.90453 14.5609 6.89984 14.5891 6.90219 14.6156L4.92719 12.6344C5.22407 12.5461 5.54437 12.4039 5.88343 12.2156C6.28031 11.9953 6.70375 11.7094 7.14593 11.3719L7.14594 11.3719Z" fill="#B9C2C7"/>
</svg>
