<svg width="22" height="22" viewBox="0 0 22 22" fill="none" xmlns="http://www.w3.org/2000/svg">
<path d="M0.553454 16.1329C0.553454 10.369 5.23633 5.6864 10.9999 5.6864C16.7599 5.6864 21.4464 10.3719 21.4464 16.1329H18.3706C18.3706 14.1173 17.5643 12.2919 16.2574 10.9635L12.5262 14.3132C12.5562 14.9873 12.229 15.6548 11.614 16.0316C10.713 16.5838 9.53365 16.3007 8.98141 15.3998C8.42922 14.4979 8.71141 13.3195 9.61329 12.7663C10.2273 12.3894 10.9708 12.4016 11.5586 12.7334L16.2273 10.9316C14.8933 9.59096 13.0454 8.76125 10.9999 8.76125C6.92277 8.76125 3.62925 12.0548 3.62925 16.1319H0.553406L0.553454 16.1329Z" fill="#62EE89"/>
</svg>
