<svg width="16" height="16" viewBox="0 0 16 16" fill="none" xmlns="http://www.w3.org/2000/svg">
<path d="M8.06128 13.4863C9.32691 13.4863 10.5531 13.0488 11.5331 12.2481C12.5131 11.4475 13.1862 10.3331 13.4387 9.09311H13.4412C13.5237 8.62936 13.9662 8.32061 14.43 8.40311C14.8937 8.4856 15.2025 8.9281 15.12 9.39186C15.12 9.39498 15.1187 9.39811 15.1181 9.40123C15.115 9.41811 15.1112 9.43436 15.1075 9.45061L15.1068 9.45123C14.6856 11.5031 13.3905 13.2693 11.5612 14.2893C9.73117 15.3093 7.54813 15.4818 5.58125 14.7612C3.61437 14.0406 2.05869 12.4986 1.32061 10.5386C0.582478 8.57798 0.734974 6.39302 1.73873 4.55431C2.74248 2.71559 4.49681 1.4055 6.54497 0.965505C8.59313 0.525505 10.7312 0.999879 12.4013 2.26426C13.0938 1.818 13.8619 1.32426 14.1226 1.16363C14.6344 0.847377 14.5769 1.31863 14.5769 1.31863C14.5769 1.31863 14.6057 6.16919 14.5769 6.52551C14.5482 6.88177 14.2382 6.69239 14.2382 6.69239C14.2376 6.69177 9.85883 4.66871 9.54315 4.51927C9.22689 4.3699 9.50315 4.1399 9.50315 4.1399L10.8425 3.27177L10.8419 3.27239C9.36878 2.40551 7.57566 2.27489 5.99198 2.9199C4.40886 3.56427 3.21694 4.90998 2.76766 6.55926C2.31891 8.2087 2.66391 9.97366 3.70203 11.3317C4.74015 12.6898 6.35195 13.4868 8.06139 13.4861L8.06128 13.4863Z" fill="#ADAFB5"/>
</svg>
