<svg width="28" height="28" viewBox="0 0 28 28" fill="none" xmlns="http://www.w3.org/2000/svg">
<path d="M20.02 7.7H7.98002C6.27925 7.7 4.90002 9.07922 4.90002 10.78V17.22C4.90002 18.9208 6.27925 20.3 7.98002 20.3H20.02C21.7208 20.3 23.1 18.9208 23.1 17.22V10.78C23.1 9.07922 21.7208 7.7 20.02 7.7ZM17.5646 14.1235L12.1046 16.9235C12.0608 16.9454 12.0094 16.9443 11.9678 16.9191C11.9263 16.8939 11.9 16.8491 11.9 16.7999V11.1999C11.9 11.1507 11.9263 11.1058 11.9678 11.0807C12.0094 11.0555 12.0608 11.0544 12.1046 11.0763L17.5646 13.8763C17.6116 13.9004 17.6411 13.9485 17.6411 14.001C17.6411 14.0535 17.6116 14.1016 17.5646 14.1257V14.1235Z" fill="#F83434"/>
</svg>
