<svg width="20" height="14" viewBox="0 0 20 14" fill="none" xmlns="http://www.w3.org/2000/svg">
<path d="M16.02 0.699997H3.98002C2.27925 0.699997 0.900024 2.07922 0.900024 3.78V10.22C0.900024 11.9208 2.27925 13.3 3.98002 13.3H16.02C17.7208 13.3 19.1 11.9208 19.1 10.22V3.78C19.1 2.07922 17.7208 0.699997 16.02 0.699997ZM13.5646 7.12348L8.10456 9.92348C8.06081 9.94535 8.00941 9.94426 7.96785 9.9191C7.92628 9.89395 7.90003 9.8491 7.90003 9.79988V4.19988C7.90003 4.15067 7.92628 4.10582 7.96785 4.08066C8.00941 4.05551 8.06081 4.05441 8.10456 4.07629L13.5646 6.87629C13.6116 6.90035 13.6411 6.94848 13.6411 7.00098C13.6411 7.05348 13.6116 7.1016 13.5646 7.12566V7.12348Z" fill="#F83434"/>
</svg>
